<svg version="1.1" id="Layer_1" xmlns="http://www.w3.org/2000/svg" xmlns:xlink="http://www.w3.org/1999/xlink" x="0px" y="0px"
	 width="100%" viewBox="0 0 252 168" enable-background="new 0 0 252 168" xml:space="preserve">
<path fill="#000000" opacity="1.000000" stroke="none" 
	d="
M0.999999,101.000000 
	C1.000000,67.735588 1.000000,34.471172 1.000000,1.000000 
	C38.020638,1.000000 75.041664,1.000000 112.865784,1.278235 
	C110.763100,3.000488 107.857315,4.444507 104.578835,5.934101 
	C102.069359,7.000453 99.617508,7.644366 97.857483,9.115795 
	C93.371132,12.866500 89.193680,16.986687 84.581116,21.096470 
	C81.828751,25.121073 79.387901,29.008234 76.627075,33.077034 
	C74.496849,39.826698 72.686592,46.394722 70.542191,53.189178 
	C70.058998,54.814762 69.909950,56.213917 69.740952,57.800362 
	C67.425247,57.925594 65.211983,58.045284 62.543503,58.095715 
	C53.001087,57.769115 44.195930,59.011974 35.535397,62.981583 
	C30.768644,65.635208 26.364033,68.257622 21.653719,71.023407 
	C17.197279,76.093056 13.046539,81.019310 8.589035,86.123550 
	C6.472272,90.981262 4.696426,95.675003 2.792423,100.316162 
	C2.626311,100.721069 1.617424,100.780235 0.999999,101.000000 
z"/>
<path fill="#000000" opacity="1.000000" stroke="none" 
	d="
M142.000000,1.000000 
	C178.918900,1.000000 215.837784,1.000000 253.000000,1.000000 
	C253.000000,30.353779 253.000000,59.708233 252.700851,89.871857 
	C251.933868,89.703705 251.270187,88.772614 251.027023,87.742271 
	C245.731262,65.302589 232.605865,49.564583 210.926056,40.613647 
	C202.826477,38.906353 194.915253,37.536442 186.641632,35.978378 
	C179.482437,36.119991 177.006119,31.044075 174.001022,26.314226 
	C168.573257,17.771221 161.716019,10.696980 151.870117,6.566648 
	C148.888809,5.160370 146.046341,4.143898 143.294525,2.923111 
	C142.696365,2.657744 142.422974,1.660278 142.000000,1.000000 
z"/>
<path fill="#D92756" opacity="1.000000" stroke="none" 
	d="
M0.999999,101.468658 
	C1.617424,100.780235 2.626311,100.721069 2.792423,100.316162 
	C4.696426,95.675003 6.472272,90.981262 8.874563,86.317184 
	C11.463742,89.522461 13.333845,92.800888 15.489811,95.879105 
	C18.146626,99.672417 21.041498,103.298996 23.901440,107.408997 
	C23.729849,110.064064 23.032713,112.369591 23.326077,114.541313 
	C25.050013,127.303261 32.475163,136.212585 43.058449,143.262360 
	C45.343422,147.844620 47.795666,151.961060 49.829342,156.274811 
	C51.778835,160.410019 53.293972,164.750015 55.000000,169.000000 
	C52.958332,169.000000 50.916668,169.000000 48.639771,168.622681 
	C47.902821,167.856598 47.445343,167.211304 46.893002,167.116028 
	C25.214909,163.376877 10.427120,151.407333 2.954527,130.575607 
	C2.713335,129.903214 1.669609,129.518707 0.999998,129.000000 
	C1.000000,119.979103 1.000000,110.958214 0.999999,101.468658 
z"/>
<path fill="#F5983F" opacity="1.000000" stroke="none" 
	d="
M211.114410,40.951027 
	C232.605865,49.564583 245.731262,65.302589 251.027023,87.742271 
	C251.270187,88.772614 251.933868,89.703705 252.700851,90.340515 
	C253.000000,97.687576 253.000000,105.375153 252.761917,113.180725 
	C252.030594,113.569328 251.537354,113.839935 250.867950,113.810867 
	C245.062927,103.745674 239.477509,93.954803 233.794083,84.221146 
	C226.857147,72.340668 219.733826,60.567257 212.948898,48.601372 
	C211.705948,46.409302 211.694382,43.519020 211.114410,40.951027 
z"/>
<path fill="#EF7F44" opacity="1.000000" stroke="none" 
	d="
M141.545898,1.000000 
	C142.422974,1.660278 142.696365,2.657744 143.294525,2.923111 
	C146.046341,4.143898 148.888809,5.160370 151.885788,6.944400 
	C152.321854,8.599413 152.375229,9.671407 152.848862,10.504455 
	C161.882568,26.392916 170.965744,42.253250 179.841217,58.449387 
	C174.775177,60.558468 169.906616,62.337582 164.963623,63.760708 
	C161.244232,56.900066 157.599289,50.395416 154.094910,43.578953 
	C157.079468,41.340393 155.618347,39.310276 154.089386,37.686028 
	C151.194046,34.610271 148.047119,31.771341 144.995178,28.461477 
	C141.539642,21.451349 138.022888,14.849046 134.686996,8.156584 
	C133.556305,5.888208 132.882568,3.392057 132.000000,0.999999 
	C135.030594,1.000000 138.061188,1.000000 141.545898,1.000000 
z"/>
<path fill="#000000" opacity="1.000000" stroke="none" 
	d="
M251.044113,114.110535 
	C251.537354,113.839935 252.030594,113.569328 252.761917,113.649361 
	C253.000000,132.262695 253.000000,150.525391 253.000000,169.000000 
	C233.646286,169.000000 214.291809,169.000000 194.314331,168.680176 
	C194.128067,168.185242 194.564774,168.010117 195.392838,167.756287 
	C200.559021,166.467682 205.333847,165.257767 210.492371,164.025208 
	C214.285858,162.352524 217.695663,160.702515 221.459137,159.021637 
	C225.912918,155.673782 230.013062,152.356781 234.416595,148.883270 
	C236.847382,145.499710 238.974747,142.272675 241.420776,138.900192 
	C246.290314,131.087219 250.378479,123.244980 251.044113,114.110535 
z"/>
<path fill="#DD3753" opacity="1.000000" stroke="none" 
	d="
M106.000000,169.000000 
	C95.645775,169.000000 85.291542,169.000000 74.442108,168.621368 
	C73.007492,166.004562 72.200203,163.699173 71.102325,161.541626 
	C68.475838,156.380035 65.712555,151.288071 63.375767,146.091278 
	C72.150032,143.263229 78.496460,137.761475 84.160370,131.150543 
	C87.012474,134.989960 89.785728,138.517853 92.095093,142.326996 
	C95.352783,147.700333 98.359100,153.233307 101.293579,158.792664 
	C103.040031,162.101334 104.442749,165.591461 106.000000,169.000000 
z"/>
<path fill="#000000" opacity="1.000000" stroke="none" 
	d="
M0.999998,129.468658 
	C1.669609,129.518707 2.713335,129.903214 2.954527,130.575607 
	C10.427120,151.407333 25.214909,163.376877 46.893002,167.116028 
	C47.445343,167.211304 47.902821,167.856598 48.202271,168.622681 
	C32.412540,169.000000 16.825077,169.000000 1.000000,169.000000 
	C1.000000,155.980072 1.000000,142.958694 0.999998,129.468658 
z"/>
<path fill="#E04350" opacity="1.000000" stroke="none" 
	d="
M106.464645,169.000000 
	C104.442749,165.591461 103.040031,162.101334 101.293579,158.792664 
	C98.359100,153.233307 95.352783,147.700333 92.095093,142.326996 
	C89.785728,138.517853 87.012474,134.989960 84.310516,130.840988 
	C87.100235,126.527176 90.025719,122.708900 93.127274,119.188263 
	C94.895592,122.010429 96.500572,124.527039 98.077271,127.061241 
	C100.766159,131.383087 103.437286,135.715958 106.063538,140.408478 
	C105.323380,141.981827 104.635544,143.190903 103.508255,145.172455 
	C106.050903,145.561783 108.026474,145.864258 110.030411,146.528763 
	C111.141388,149.244247 112.243561,151.588943 113.302551,153.952988 
	C115.546974,158.963318 117.768875,163.983719 120.000000,169.000000 
	C115.643097,169.000000 111.286201,169.000000 106.464645,169.000000 
z"/>
<path fill="#E96848" opacity="1.000000" stroke="none" 
	d="
M195.001495,167.834991 
	C194.564774,168.010117 194.128067,168.185242 193.845673,168.680176 
	C193.555557,169.000000 193.111099,169.000000 192.394302,168.621796 
	C191.414627,168.495743 190.707321,168.747864 190.000000,169.000000 
	C183.645599,169.000000 177.291214,169.000000 170.486237,168.616425 
	C169.410248,166.551422 168.951431,164.783264 168.129501,163.204147 
	C165.156189,157.491837 162.060852,151.843063 159.474899,146.102921 
	C168.293137,146.079147 176.648056,146.122772 185.081406,146.504013 
	C185.937271,148.305038 186.788177,149.734680 187.478958,151.237900 
	C190.015259,156.757034 192.498367,162.300613 195.001495,167.834991 
z"/>
<path fill="#DA2E55" opacity="1.000000" stroke="none" 
	d="
M63.004494,146.167984 
	C65.712555,151.288071 68.475838,156.380035 71.102325,161.541626 
	C72.200203,163.699173 73.007492,166.004562 73.973450,168.621368 
	C67.978851,169.000000 61.957695,169.000000 55.468269,169.000000 
	C53.293972,164.750015 51.778835,160.410019 49.829342,156.274811 
	C47.795666,151.961060 45.343422,147.844620 43.397453,143.431427 
	C49.915382,145.729599 56.179806,147.781799 63.004494,146.167984 
z"/>
<path fill="#E65C4B" opacity="1.000000" stroke="none" 
	d="
M159.011581,146.170319 
	C162.060852,151.843063 165.156189,157.491837 168.129501,163.204147 
	C168.951431,164.783264 169.410248,166.551422 170.017822,168.616425 
	C164.311966,169.000000 158.623917,169.000000 152.477173,168.612198 
	C151.303741,166.255249 150.733826,164.218079 149.846893,162.329834 
	C147.300980,156.909744 144.626755,151.549927 142.466187,146.099060 
	C148.290131,146.077911 153.650864,146.124115 159.011581,146.170319 
z"/>
<path fill="#E3524D" opacity="1.000000" stroke="none" 
	d="
M142.002960,146.166412 
	C144.626755,151.549927 147.300980,156.909744 149.846893,162.329834 
	C150.733826,164.218079 151.303741,166.255249 152.009216,168.612198 
	C146.645065,169.000000 141.290146,169.000000 135.453934,168.626587 
	C134.166016,166.279648 133.494858,164.236801 132.527039,162.345779 
	C129.749985,156.919586 126.852806,151.554886 124.466293,146.098267 
	C130.620819,146.075806 136.311890,146.121109 142.002960,146.166412 
z"/>
<path fill="#ED7845" opacity="1.000000" stroke="none" 
	d="
M131.535355,0.999999 
	C132.882568,3.392057 133.556305,5.888208 134.686996,8.156584 
	C138.022888,14.849046 141.539642,21.451349 144.640564,28.423653 
	C138.864502,26.783403 133.433487,24.808437 127.922234,22.494656 
	C126.890999,20.265368 125.882408,18.401335 125.000168,16.479307 
	C122.637856,11.332816 120.329681,6.161471 118.000000,0.999999 
	C122.356903,1.000000 126.713806,1.000000 131.535355,0.999999 
z"/>
<path fill="#E24A4F" opacity="1.000000" stroke="none" 
	d="
M124.002838,146.166016 
	C126.852806,151.554886 129.749985,156.919586 132.527039,162.345779 
	C133.494858,164.236801 134.166016,166.279648 134.986328,168.626587 
	C130.310745,169.000000 125.621490,169.000000 120.466118,169.000000 
	C117.768875,163.983719 115.546974,158.963318 113.302551,153.952988 
	C112.243561,151.588943 111.141388,149.244247 110.490776,146.461395 
	C115.282799,146.076691 119.642815,146.121353 124.002838,146.166016 
z"/>
<path fill="#EB7047" opacity="1.000000" stroke="none" 
	d="
M117.583336,0.999999 
	C120.329681,6.161471 122.637856,11.332816 125.000168,16.479307 
	C125.882408,18.401335 126.890999,20.265368 127.506012,22.566135 
	C123.113792,23.929758 119.057541,24.883085 114.972588,25.476707 
	C111.613091,18.707508 108.282310,12.298016 104.951523,5.888524 
	C107.857315,4.444507 110.763100,3.000488 113.334442,1.278235 
	C114.388893,1.000000 115.777779,1.000000 117.583336,0.999999 
z"/>
<path fill="#000000" opacity="1.000000" stroke="none" 
	d="
M190.333328,169.000000 
	C190.707321,168.747864 191.414627,168.495743 192.060974,168.621796 
	C191.555557,169.000000 191.111099,169.000000 190.333328,169.000000 
z"/>
<path fill="#E04350" opacity="1.000000" stroke="none" 
	d="
M35.897537,62.950363 
	C44.195930,59.011974 53.001087,57.769115 62.551865,58.466965 
	C66.064621,64.519279 69.149673,70.111977 72.152252,75.748596 
	C74.817192,80.751350 77.390587,85.802887 79.669289,90.797607 
	C69.940811,81.324051 58.662922,79.133904 46.010033,81.734406 
	C42.617416,75.224968 39.257477,69.087669 35.897537,62.950363 
z"/>
<path fill="#E3524D" opacity="1.000000" stroke="none" 
	d="
M70.876335,52.962749 
	C72.686592,46.394722 74.496849,39.826698 76.781647,33.392906 
	C79.164215,36.978626 80.904160,40.537136 83.018295,43.857380 
	C86.495781,49.318771 90.215652,54.625820 93.905899,60.404709 
	C94.912827,64.700813 95.437805,68.749352 96.874435,72.443352 
	C99.216324,78.465034 97.526955,83.072014 92.886787,86.808990 
	C88.718536,79.513046 84.924927,72.388832 80.600609,65.602806 
	C77.754982,61.137238 74.144386,57.159134 70.876335,52.962749 
z"/>
<path fill="#E96848" opacity="1.000000" stroke="none" 
	d="
M104.578842,5.934099 
	C108.282310,12.298016 111.613091,18.707508 114.614937,25.554184 
	C107.117409,29.144503 102.127419,34.637905 97.963966,40.759991 
	C96.285751,37.533741 94.889778,34.520515 93.047188,31.810999 
	C90.505585,28.073591 87.626923,24.565403 84.892632,20.959030 
	C89.193680,16.986687 93.371132,12.866500 97.857483,9.115795 
	C99.617508,7.644366 102.069359,7.000453 104.578842,5.934099 
z"/>
<path fill="#E24A4F" opacity="1.000000" stroke="none" 
	d="
M70.542191,53.189178 
	C74.144386,57.159134 77.754982,61.137238 80.600609,65.602806 
	C84.924927,72.388832 88.718536,79.513046 92.746605,87.122345 
	C90.726189,90.603271 88.696724,93.455460 86.667259,96.307648 
	C85.715508,96.928230 84.763756,97.548820 83.812004,98.169403 
	C82.542801,95.723900 81.273598,93.278389 80.004395,90.832886 
	C77.390587,85.802887 74.817192,80.751350 72.152252,75.748596 
	C69.149673,70.111977 66.064621,64.519279 63.007080,58.536232 
	C65.211983,58.045284 67.425247,57.925594 69.740952,57.800362 
	C69.909950,56.213917 70.058998,54.814762 70.542191,53.189178 
z"/>
<path fill="#DA2E55" opacity="1.000000" stroke="none" 
	d="
M23.833494,106.997635 
	C21.041498,103.298996 18.146626,99.672417 15.489811,95.879105 
	C13.333845,92.800888 11.463742,89.522461 9.181329,86.139198 
	C13.046539,81.019310 17.197279,76.093056 21.731834,71.388474 
	C25.756947,78.113899 29.398241,84.617645 32.898849,91.427345 
	C29.783278,96.821404 26.808386,101.909523 23.833494,106.997635 
z"/>
<path fill="#E65C4B" opacity="1.000000" stroke="none" 
	d="
M84.581116,21.096470 
	C87.626923,24.565403 90.505585,28.073591 93.047188,31.810999 
	C94.889778,34.520515 96.285751,37.533741 97.934464,41.135620 
	C96.603149,47.905777 95.218246,53.951859 93.833344,59.997936 
	C90.215652,54.625820 86.495781,49.318771 83.018295,43.857380 
	C80.904160,40.537136 79.164215,36.978626 77.101616,33.211273 
	C79.387901,29.008234 81.828751,25.121073 84.581116,21.096470 
z"/>
<path fill="#DD3753" opacity="1.000000" stroke="none" 
	d="
M33.039536,91.121399 
	C29.398241,84.617645 25.756947,78.113899 22.037537,71.245087 
	C26.364033,68.257622 30.768644,65.635208 35.535397,62.981583 
	C39.257477,69.087669 42.617416,75.224968 45.826168,82.044022 
	C41.463165,85.524315 37.251350,88.322853 33.039536,91.121399 
z"/>
<path fill="#F39141" opacity="1.000000" stroke="none" 
	d="
M250.867950,113.810860 
	C250.378479,123.244980 246.290314,131.087219 241.128479,138.719482 
	C238.758484,136.292099 236.958313,133.928955 235.249817,131.501282 
	C232.525528,127.630234 229.862228,123.716255 227.129440,119.388741 
	C233.557617,101.492088 228.177185,86.496819 217.236816,72.801048 
	C212.163712,66.450249 205.234512,62.482895 197.959991,58.726379 
	C196.925644,55.988941 195.987152,53.591389 194.834778,51.301472 
	C192.281540,46.227806 189.620895,41.208187 187.004044,36.166534 
	C194.915253,37.536442 202.826477,38.906353 210.926056,40.613647 
	C211.694382,43.519020 211.705948,46.409302 212.948898,48.601372 
	C219.733826,60.567257 226.857147,72.340668 233.794083,84.221146 
	C239.477509,93.954803 245.062927,103.745674 250.867950,113.810860 
z"/>
<path fill="#F18743" opacity="1.000000" stroke="none" 
	d="
M186.641632,35.978382 
	C189.620895,41.208187 192.281540,46.227806 194.834778,51.301472 
	C195.987152,53.591389 196.925644,55.988941 197.530685,58.679050 
	C191.413025,58.720097 185.725845,58.419754 180.038666,58.119415 
	C170.965744,42.253250 161.882568,26.392916 152.848862,10.504455 
	C152.375229,9.671407 152.321854,8.599413 152.057159,7.260909 
	C161.716019,10.696980 168.573257,17.771221 174.001022,26.314226 
	C177.006119,31.044075 179.482437,36.119991 186.641632,35.978382 
z"/>
<path fill="#000000" opacity="1.000000" stroke="none" 
	d="
M32.898849,91.427345 
	C37.251350,88.322853 41.463165,85.524315 45.858845,82.416153 
	C58.662922,79.133904 69.940811,81.324051 79.669296,90.797600 
	C81.273598,93.278389 82.542801,95.723900 83.812004,98.169403 
	C84.763756,97.548820 85.715508,96.928230 86.667259,96.307648 
	C88.696724,93.455460 90.726189,90.603271 92.895836,87.437729 
	C97.526955,83.072014 99.216324,78.465034 96.874435,72.443352 
	C95.437805,68.749352 94.912827,64.700813 93.905899,60.404709 
	C95.218246,53.951859 96.603149,47.905777 98.017548,41.484070 
	C102.127419,34.637905 107.117409,29.144503 114.643646,25.913891 
	C119.057541,24.883085 123.113792,23.929758 127.586258,22.904951 
	C133.433487,24.808437 138.864502,26.783403 144.650116,28.796192 
	C148.047119,31.771341 151.194046,34.610271 154.089386,37.686028 
	C155.618347,39.310276 157.079468,41.340393 153.740158,43.630711 
	C149.815948,46.958630 146.387070,49.922977 142.610138,52.940338 
	C139.473511,55.978924 136.684906,58.964497 133.589783,62.083298 
	C128.508057,68.108147 123.732841,73.999771 118.647369,80.055901 
	C115.543007,84.438889 112.748909,88.657379 109.643784,93.041344 
	C106.420479,97.848091 103.508194,102.489357 100.344604,107.399231 
	C97.712593,111.408768 95.331909,115.149696 92.951218,118.890625 
	C90.025719,122.708900 87.100235,126.527176 84.024597,130.655014 
	C78.496460,137.761475 72.150032,143.263229 63.375763,146.091278 
	C56.179806,147.781799 49.915382,145.729599 43.381725,143.051849 
	C32.475163,136.212585 25.050013,127.303261 23.326077,114.541313 
	C23.032713,112.369591 23.729849,110.064064 23.901440,107.408997 
	C26.808386,101.909523 29.783278,96.821404 32.898849,91.427345 
z"/>
<path fill="#000000" opacity="1.000000" stroke="none" 
	d="
M179.841217,58.449387 
	C185.725845,58.419754 191.413025,58.720097 197.529510,59.067764 
	C205.234512,62.482895 212.163712,66.450249 217.236816,72.801048 
	C228.177185,86.496819 233.557617,101.492088 227.022385,119.690933 
	C224.956802,123.581177 222.954575,126.737541 220.643433,130.029663 
	C216.891174,133.166031 213.447845,136.166641 209.651581,139.204071 
	C205.866837,140.882843 202.435013,142.524765 198.587677,144.096313 
	C193.782455,144.739426 189.392715,145.452911 185.002975,146.166397 
	C176.648056,146.122772 168.293137,146.079147 159.474899,146.102921 
	C153.650864,146.124115 148.290131,146.077911 142.466187,146.099060 
	C136.311890,146.121109 130.620819,146.075806 124.466293,146.098267 
	C119.642815,146.121353 115.282799,146.076691 110.462418,146.099396 
	C108.026474,145.864258 106.050903,145.561783 103.508255,145.172455 
	C104.635544,143.190903 105.323380,141.981827 106.372963,140.263031 
	C109.174049,136.208588 111.613373,132.663834 114.362556,128.953796 
	C117.729134,124.188118 120.785851,119.587730 123.994949,114.674301 
	C126.889969,110.532196 129.632599,106.703140 132.634460,102.613510 
	C137.633163,95.583794 142.372635,88.814659 147.412842,81.887115 
	C150.157898,78.521484 152.602219,75.314270 155.355667,71.965973 
	C158.789200,69.255501 161.913620,66.686096 165.038040,64.116699 
	C169.906616,62.337582 174.775177,60.558468 179.841217,58.449387 
z"/>
<path fill="#ED7845" opacity="1.000000" stroke="none" 
	d="
M164.963623,63.760704 
	C161.913620,66.686096 158.789200,69.255501 155.177429,71.671654 
	C150.779434,65.308044 146.868805,59.097687 142.958176,52.887325 
	C146.387070,49.922977 149.815948,46.958630 153.599594,43.942524 
	C157.599289,50.395416 161.244232,56.900066 164.963623,63.760704 
z"/>
<path fill="#EF7F44" opacity="1.000000" stroke="none" 
	d="
M210.004517,139.167267 
	C213.447845,136.166641 216.891174,133.166031 220.791229,130.360901 
	C223.800903,135.319138 226.151382,140.208374 229.008194,144.781281 
	C230.123764,146.566956 232.377731,147.641403 234.113205,149.039795 
	C230.013062,152.356781 225.912918,155.673782 221.211121,158.778198 
	C217.074478,152.099487 213.539505,145.633377 210.004517,139.167267 
z"/>
<path fill="#EB7047" opacity="1.000000" stroke="none" 
	d="
M185.081406,146.504013 
	C189.392715,145.452911 193.782455,144.739426 198.615250,144.455368 
	C202.741760,151.272476 206.425232,157.660172 210.108688,164.047852 
	C205.333847,165.257767 200.559021,166.467682 195.392838,167.756287 
	C192.498367,162.300613 190.015259,156.757034 187.478958,151.237900 
	C186.788177,149.734680 185.937271,148.305038 185.081406,146.504013 
z"/>
<path fill="#F18743" opacity="1.000000" stroke="none" 
	d="
M234.416595,148.883270 
	C232.377731,147.641403 230.123764,146.566956 229.008194,144.781281 
	C226.151382,140.208374 223.800903,135.319138 221.100159,130.225143 
	C222.954575,126.737541 224.956802,123.581177 227.066101,120.122620 
	C229.862228,123.716255 232.525528,127.630234 235.249817,131.501282 
	C236.958313,133.928955 238.758484,136.292099 240.809814,138.864929 
	C238.974747,142.272675 236.847382,145.499710 234.416595,148.883270 
z"/>
<path fill="#ED7845" opacity="1.000000" stroke="none" 
	d="
M210.492371,164.025208 
	C206.425232,157.660172 202.741760,151.272476 199.030731,144.525742 
	C202.435013,142.524765 205.866837,140.882843 209.651581,139.204086 
	C213.539505,145.633377 217.074478,152.099487 220.857468,158.809052 
	C217.695663,160.702515 214.285858,162.352524 210.492371,164.025208 
z"/>
<path fill="#E24A4F" opacity="1.000000" stroke="none" 
	d="
M114.052696,129.119095 
	C111.613373,132.663834 109.174049,136.208588 106.425293,139.898773 
	C103.437286,135.715958 100.766159,131.383087 98.077271,127.061241 
	C96.500572,124.527039 94.895592,122.010429 93.127274,119.188271 
	C95.331909,115.149696 97.712593,111.408768 100.529121,107.759338 
	C105.327538,114.940254 109.690117,122.029671 114.052696,129.119095 
z"/>
<path fill="#E96848" opacity="1.000000" stroke="none" 
	d="
M147.112106,82.045525 
	C142.372635,88.814659 137.633163,95.583794 132.470169,102.239594 
	C127.683655,94.714638 123.320641,87.303017 118.957626,79.891396 
	C123.732841,73.999771 128.508057,68.108147 133.837143,62.324966 
	C138.631378,68.970779 142.871735,75.508148 147.112106,82.045525 
z"/>
<path fill="#E65C4B" opacity="1.000000" stroke="none" 
	d="
M118.647369,80.055901 
	C123.320641,87.303017 127.683655,94.714638 132.210953,102.500175 
	C129.632599,106.703140 126.889969,110.532196 123.671288,114.584000 
	C118.781761,107.496445 114.368286,100.186157 109.954803,92.875862 
	C112.748909,88.657379 115.543007,84.438889 118.647369,80.055901 
z"/>
<path fill="#E3524D" opacity="1.000000" stroke="none" 
	d="
M109.643784,93.041344 
	C114.368286,100.186157 118.781761,107.496445 123.518906,114.897041 
	C120.785851,119.587730 117.729134,124.188118 114.362556,128.953796 
	C109.690117,122.029671 105.327538,114.940254 100.780441,107.490723 
	C103.508194,102.489357 106.420479,97.848091 109.643784,93.041344 
z"/>
<path fill="#EB7047" opacity="1.000000" stroke="none" 
	d="
M147.412842,81.887115 
	C142.871735,75.508148 138.631378,68.970779 134.143646,62.191738 
	C136.684906,58.964497 139.473511,55.978924 142.610138,52.940338 
	C146.868805,59.097687 150.779434,65.308044 154.868317,71.812729 
	C152.602219,75.314270 150.157898,78.521484 147.412842,81.887115 
z"/>
</svg>