<svg width="39" height="40" fill="none" xmlns="http://www.w3.org/2000/svg"><path d="M36.008 40 22.13 25.754a11.57 11.57 0 0 1-3.692 2.194 12.756 12.756 0 0 1-4.488.785 12.969 12.969 0 0 1-9.663-4.062 13.547 13.547 0 0 1-3.954-9.8 13.539 13.539 0 0 1 3.958-9.8 12.882 12.882 0 0 1 9.577-4.07 12.8 12.8 0 0 1 9.553 4.062 13.6 13.6 0 0 1 3.932 9.812 13.81 13.81 0 0 1-.739 4.488 13.857 13.857 0 0 1-2.217 4.063L38.33 37.617 36.008 40ZM13.894 25.483a9.744 9.744 0 0 0 7.29-3.115 10.422 10.422 0 0 0 3-7.5 10.421 10.421 0 0 0-3-7.5 9.746 9.746 0 0 0-7.29-3.115A9.9 9.9 0 0 0 6.53 7.368a10.366 10.366 0 0 0-3.032 7.5 10.366 10.366 0 0 0 3.032 7.5 9.9 9.9 0 0 0 7.365 3.115Z" fill="#fff"/></svg>