<svg xmlns="http://www.w3.org/2000/svg" width="54.863" height="36.702" viewBox="0 0 54.863 36.702">
  <g id="Group_14" data-name="Group 14" transform="translate(-218.249 -464.578)">
    <path id="black-gradient-background" d="M304.25,478.79c1.64-13.47,17.79-16.81,23.76-4.88a.722.722,0,0,0,.71.43c16.42-.44,21.37,21.81,6.61,27.83a22.063,22.063,0,0,1-7.81,1.05q-12.08.02-24.15.06a17.311,17.311,0,0,1-7.52-1.29,11.984,11.984,0,0,1-4.92-16.9q3.72-6.57,12.73-5.82A.492.492,0,0,0,304.25,478.79Zm3.27,8.53c-5.46-7.32-16.14-1.35-13,6.64,1.92,4.87,9.37,6.42,12.54,1.83q5.7-8.26,11.49-16.49a17.465,17.465,0,0,1,4.38-3.47.491.491,0,0,0,.16-.78c-5.69-8.25-17.62-1.14-12.67,8.23a.4.4,0,0,1-.03.43l-2.58,3.61Q307.66,487.52,307.52,487.32Zm25.27-7.65c-5.62-2.16-9.24.95-12.52,5.62q-4.48,6.36-8.86,12.68-.38.54.28.53,8.33-.01,16.93.02C340.45,498.56,343.45,483.77,332.79,479.67Z" transform="translate(-71 -2)" fill="#fff"/>
  </g>
</svg>
